<?xml version="1.0"?>
<svg xmlns="http://www.w3.org/2000/svg" viewBox="0 0 64 64" width="512" height="512"><path d="m13.46582 33h-.84534a4.00006 4.00006 0 1 0 -5.241 0h-.8453c-3.05646 0-4.53418 2.47772-4.53418 5.53418v8.46582h3v15h10v-15h3v-8.46582c0-3.05646-1.47772-5.53418-4.53418-5.53418z" fill="#fccc38"/><path d="m32 9h30v38h-30z" fill="#aecbff"/><path d="m36 15h22v16h-22z" fill="#05b4dd"/><path d="m49.18445 23.04486a3 3 0 1 0 -4.3689 0 3.25076 3.25076 0 0 0 -2.81555 3.21582v4.73932h10v-4.73932a3.25076 3.25076 0 0 0 -2.81555-3.21582z" fill="#fccc38"/><path d="m36 34h15v2h-15z" fill="#3784f4"/><path d="m53.93213 34h4.06787v2h-4.06787z" fill="#3784f4"/><path d="m11 37h2v2h-2z" fill="#636361"/><g fill="#3784f4"><path d="m36 38h22v2h-22z"/><path d="m36 42h8v2h-8z"/><path d="m45.96045 42h12.03955v2h-12.03955z"/></g><path d="m27 21h-4v2h1.77325l-6.52081 7.33594 1.49512 1.32812 6.25244-7.03399v1.36993h2v-4a.99974.99974 0 0 0 -1-1z" fill="#f4393d"/><path d="m9 48h2v14h-2z" fill="#f9bb0b"/><path d="m5.02712 37h1v10h-1z" fill="#f9bb0b"/><path d="m14 37h1v10h-1z" fill="#f9bb0b"/><path d="m41.53665 3.4758 2.73606 7.5242h5.45458l2.73606-7.5242a1.09991 1.09991 0 0 0 -1.03369-1.4758h-8.85932a1.09991 1.09991 0 0 0 -1.03369 1.4758zm5.46335 5.5242a2 2 0 1 1 2-2 2 2 0 0 1 -2 2z" fill="#f4393d"/></svg>
